<svg width="381" height="75" viewBox="0 0 381 75" fill="none" xmlns="http://www.w3.org/2000/svg">
<path d="M313.706 19.168V26.3108H302.812V59.168H295.651V26.3108H284.706V19.168H313.706Z" fill="black"/>
<path d="M343.706 59.168H318.706V19.168H343.261V26.3108H325.751V35.5685H338.101V42.6532H325.751V52.0252H343.706V59.168Z" fill="black"/>
<path d="M366.541 34.8829L372.33 19.168H379.994L372.736 38.369L380.706 59.168H372.736L366.693 41.9676H361.718L355.677 59.168H347.706L355.677 38.3109L348.415 19.168H356.083L361.87 34.8829H366.541Z" fill="black"/>
<path d="M111.583 35.3399V19.168H118.706V59.168H111.583V45.7965L97.0321 30.0817H96.8314V59.168H89.7064V19.168H96.3808L111.382 35.3399H111.583Z" fill="black"/>
<path d="M147.517 34.8101C147.517 29.1675 144.529 26.0944 140.731 26.0944C136.884 26.0944 133.896 29.1675 133.896 34.8101V39.559H147.517V34.8101ZM154.706 59.168H147.517V46.5422H133.896V59.168H126.706V33.8596C126.706 24.9223 133.643 19.168 140.731 19.168C147.821 19.168 154.706 25.4809 154.706 33.8596V59.168Z" fill="black"/>
<path d="M180.767 32.3109C180.767 28.939 178.633 26.3108 175.707 26.3108H169.754V38.5395H175.707C178.633 38.5395 180.767 35.6827 180.767 32.3109ZM169.754 45.6242V59.168H162.706V19.168H175.509C182.901 19.168 187.714 25.0538 187.714 32.1385C187.714 39.7384 183.744 43.3388 180.867 44.5958L188.706 59.168H180.27L173.523 45.6242H169.754Z" fill="black"/>
<path d="M195.706 19.168H202.706V59.168H195.706V19.168Z" fill="black"/>
<path d="M222.384 12.4904C221.709 12.4904 221.241 13.3934 221.241 14.6923H216.206C216.206 10.6846 217.661 6.16797 221.761 6.16797C222.954 6.16797 223.941 6.39556 225.498 7.07277C227.574 8.03122 228.351 8.36983 229.027 8.36983C229.703 8.36983 230.169 7.41137 230.169 6.16797H235.204C235.204 10.1202 233.698 14.6923 229.651 14.6923C228.351 14.6923 227.627 14.5221 225.913 13.732C223.628 12.6607 223.007 12.4904 222.384 12.4904ZM233.335 35.6322V19.6585H240.706V59.168H233.335V45.9605L218.283 30.4384H218.076V59.168H210.706V19.6585H217.608L233.126 35.6322H233.335Z" fill="black"/>
<path d="M275.352 39.4187C275.352 31.7973 271.268 26.1219 264.68 26.1219C258.145 26.1219 254.009 31.7973 254.009 39.4187C254.009 47.0401 258.145 52.2688 264.68 52.2688C271.268 52.2688 275.352 47.0401 275.352 39.4187ZM282.706 39.4187C282.706 50.1551 275.811 59.168 264.68 59.168C253.548 59.168 246.706 50.1551 246.706 39.4187C246.706 28.1809 253.548 19.168 264.68 19.168C275.811 19.168 282.706 28.1809 282.706 39.4187Z" fill="black"/>
<path d="M18.3421 74.8965L30.1434 45.3952C30.3314 44.9245 30.7807 44.6192 31.2901 44.6192H38.8367C39.3434 44.6192 39.8061 44.9365 39.9874 45.4098L51.3621 74.8965H53.3141L41.6887 44.7552C41.2367 43.5845 40.0914 42.7978 38.8367 42.7978H31.2901C30.0327 42.7978 28.9181 43.5525 28.4514 44.7192L16.3807 74.8965H18.3421Z" fill="black"/>
<path d="M12.8917 74.8965L26.8264 41.0658C26.9984 40.6432 27.405 40.3698 27.8624 40.3698H42.2717C42.733 40.3698 43.1397 40.6471 43.3117 41.0791L56.9597 74.8965H58.9224L45.0024 40.4018C44.5544 39.2765 43.4824 38.5485 42.2717 38.5485H27.8624C26.6624 38.5485 25.593 39.2658 25.141 40.3738L10.921 74.8965H12.8917Z" fill="black"/>
<path d="M7.43718 74.8965L23.5092 36.7365C23.6652 36.3632 24.0265 36.1205 24.4332 36.1205H45.7052C46.1132 36.1205 46.4772 36.3645 46.6332 36.7445L62.5612 74.8965H64.5332L48.3158 36.0472C47.8785 34.9845 46.8532 34.2992 45.7052 34.2992H24.4332C23.2918 34.2992 22.2678 34.9805 21.8292 36.0325L5.46118 74.8965H7.43718Z" fill="black"/>
<path d="M1.98146 74.8965L20.1908 32.4072C20.3308 32.0818 20.6495 31.8711 21.0055 31.8711H49.1401C49.4961 31.8711 49.8148 32.0818 49.9548 32.4072L68.1655 74.8965H70.1455L51.6281 31.6912C51.2015 30.6938 50.2255 30.0498 49.1401 30.0498H21.0055C19.9201 30.0498 18.9441 30.6938 18.5161 31.6912L0.00012207 74.8965H1.98146Z" fill="black"/>
<path d="M54.096 37.4487L70.1453 0.000732422H68.1653L53.1053 35.1367L54.096 37.4487Z" fill="black"/>
<path d="M17.04 35.1373L1.98133 0H0L16.0493 37.448L17.04 35.1373Z" fill="black"/>
<path d="M41.7444 30.05L53.7657 0.000717163H51.803L40.0017 29.502C39.911 29.7287 39.759 29.9154 39.5697 30.05H41.7444Z" fill="black"/>
<path d="M30.5986 30.05C30.4039 29.9114 30.2452 29.718 30.1572 29.4874L18.7839 0.000717163H16.8319L28.4212 30.05H30.5986Z" fill="black"/>
<path d="M46.8473 30.05L59.2233 0.000717163H57.2539L44.8766 30.05H46.8473Z" fill="black"/>
<path d="M25.3134 30.05L13.1854 0.000717163H11.2228L23.3494 30.05H25.3134Z" fill="black"/>
<path d="M51.4684 31.3816L64.6844 0.000259399H62.7084L49.9938 30.1909C50.6071 30.3963 51.1338 30.8136 51.4684 31.3816Z" fill="black"/>
<path d="M20.1833 30.1796L7.58466 0.000968933H5.61133L18.6967 31.345C19.038 30.785 19.5687 30.3756 20.1833 30.1796Z" fill="black"/>
</svg>
